# xmcd
#
# Track frame offsets:
#	150
#	12226
#	31837
#	46920
#	63929
#	80207
#	98177
#	113266
#	126728
#	142662
#	159086
#
# Disc length: 2636 seconds
# Revision: 0
# Processed by: cddbd v1.5.2PL0 Copyright (c) Steve Scherf et al.
# Submitted via: dBpowerAMP V12.0
#
DISCID=800a4a0b
DTITLE=Delta Deep - Delta Deep
DYEAR=2015
DGENRE=Blues
TTITLE0=Bang The Lid
TTITLE1=Whiskey
TTITLE2=Down In The Delta
TTITLE3=Treat Her Like Candy
TTITLE4=Miss Me
TTITLE5=Burnt Sally
TTITLE6=Private Number
TTITLE7=Shuffle Sweet
TTITLE8=Black Coffee
TTITLE9=Feelit
TTITLE10=Mistreated
EXTD=
EXTT0=
EXTT1=
EXTT2=
EXTT3=
EXTT4=
EXTT5=
EXTT6=
EXTT7=
EXTT8=
EXTT9=
EXTT10=
PLAYORDER=
